<?xml version="1.0" standalone="no"?><!DOCTYPE svg PUBLIC "-//W3C//DTD SVG 1.1//EN" "http://www.w3.org/Graphics/SVG/1.1/DTD/svg11.dtd"><svg t="1504874887598" class="icon" style="" viewBox="0 0 1024 1024" version="1.1" xmlns="http://www.w3.org/2000/svg" p-id="4284" xmlns:xlink="http://www.w3.org/1999/xlink" width="32" height="32"><defs><style type="text/css"></style></defs><path d="M510.483972 277.715069" p-id="4285" fill="#ffffff"></path><path d="M305.00818 866.679975c-21.396309 0-42.787502-0.004093-64.177672-0.011256-22.88522 0-37.739533-14.224979-37.841863-36.230156-0.404206-75.400271-0.37146-155.265226 0.102331-251.352655 0-4.856611 3.843538-10.704806 7.465019-13.734816 47.870264-39.829124 96.737228-80.093153 143.995555-119.034047l68.159356-56.18565c26.313296-21.697161 52.618405-43.389206 78.94398-65.061808 1.820462-1.494027 3.668553-2.959402 5.683443-4.556783 1.320065-1.046842 2.714831-2.156106 4.222161-3.363607l0.545422-0.436952 17.670451 14.534018c17.399275 14.302751 34.748409 28.567639 52.076052 42.857087 19.841907 16.352433 39.678698 32.712029 59.514465 49.078789 55.118342 45.456285 112.108311 92.465948 168.3308 138.498354 8.537444 6.966669 11.991102 14.183024 11.92561 24.917506-0.470721 77.434603-0.358157 153.837714-0.173962 238.521418 0.039909 17.214057-5.279237 28.570709-16.742313 35.734876-3.272533 2.061962-9.745968 5.529947-16.23373 5.571902-28.519544 0.143263-59.583027 0.206708-97.756441 0.206708-21.239743 0-42.481534-0.016373-63.7223-0.037862-14.270005-0.014326-28.545126-0.025583-42.816155-0.029676-0.831948 0-1.601474-0.2415-2.672876-0.569982-0.418532-0.124843-0.887206-0.273223-1.426489-0.423649l-0.630357-0.173962L579.44867 662.038178 445.262528 662.038178l0 204.075909-0.822738 0.035816c-1.413186 0.067538-2.729158 0.149403-3.986801 0.224104-2.573615 0.154519-4.796236 0.294712-7.080256 0.294712-21.386076 0-42.783409 0-64.179718 0.004093C347.801822 866.675882 326.40449 866.679975 305.00818 866.679975L305.00818 866.679975zM512.089539 318.933843c-1.300622 1.044796-2.51631 2.009773-3.681856 2.932796-2.004657 1.591241-3.846608 3.052522-5.658883 4.53734-26.319435 21.673625-52.624545 43.36567-78.94091 65.063855l-68.156286 56.183604c-47.260373 38.940894-96.126314 79.207993-143.988392 119.024837-3.367701 2.822278-6.846942 8.237615-6.846942 12.415774-0.470721 96.082312-0.502443 175.945221-0.104377 251.335259 0.104377 21.288862 13.941524 34.512025 36.117592 34.512025 42.782386 0.025583 85.569888 0.021489 128.362506 0.00921 21.397333-0.005117 42.793642-0.00921 64.179718-0.00921 2.232854 0 4.430916-0.12996 6.975878-0.286526 1.01512-0.062422 2.071172-0.125867 3.189645-0.184195l0-204.15982 137.632637 0 0 203.780173c0.305969 0.089028 0.582261 0.181125 0.840134 0.258896 0.962931 0.290619 1.593288 0.488117 2.161223 0.488117 14.279215 0.010233 28.54922 0.01842 42.820248 0.035816 21.24179 0.016373 42.48358 0.036839 63.72844 0.036839 38.168298 0 69.224618-0.068562 97.744161-0.209778 6.058996-0.039909 12.202926-3.342118 15.328104-5.310959 10.910491-6.815219 15.968693-17.700127 15.932878-34.260292-0.185218-84.694961-0.296759-161.098072 0.167822-238.538815 0.069585-10.278087-3.095501-16.887622-11.286044-23.572882-56.228629-46.029336-113.222691-93.039-168.335916-138.501424-19.836791-16.364713-39.673581-32.726356-59.518558-49.076742-17.328667-14.289448-34.675754-28.555359-52.070936-42.859134L512.089539 318.933843 512.089539 318.933843zM305.00818 881.450377c-21.400403 0-42.792619-0.004093-64.183811-0.021489-30.827099 0-52.464909-20.940938-52.604078-50.928926-0.400113-75.422783-0.366344-155.337881 0.103354-251.483638 0-9.862625 6.40078-19.669992 12.748349-24.987091 48.01148-39.946804 96.857978-80.192414 144.094816-119.110795l68.153216-56.178487c26.314319-21.701255 52.619428-43.394323 78.94398-65.073064 1.907443-1.557472 3.799536-3.061732 5.857405-4.696975l0.328481-0.257873c1.215688-0.961908 2.494821-1.977028 3.870144-3.080152l9.907651-7.939833 26.930349 22.148439c17.398252 14.308891 34.749432 28.578896 52.082192 42.868343 18.522865 15.261589 37.029358 30.527271 55.540967 45.799092l3.984754 3.27765c55.072293 45.429679 112.022353 92.400456 168.285774 138.470725 11.917424 9.718339 17.433044 21.299095 17.33276 36.433794-0.465604 77.369112-0.352017 153.739477-0.169869 238.399645 0.052189 22.188348-7.91732 38.434358-23.683399 48.287773-5.590322 3.518127-14.322194 7.752568-23.965831 7.814989-28.52773 0.144286-59.613726 0.211824-97.851609 0.211824-18.773576 0-37.549198-0.021489-56.320727-0.034792l-8.138354-0.010233c-14.027481-0.007163-28.059056-0.022513-42.083467-0.032746-3.048429 0-5.435803-0.730641-7.013741-1.216711l-0.062422-0.016373c-0.285502-0.091074-0.600681-0.190335-0.962931-0.287549l-11.45489-3.184529 0-199.821001L460.02986 676.800393l0 203.385177-14.880919 0.716314c-1.205455 0.059352-2.343371 0.124843-3.427052 0.192382l-0.38988 0.021489c-2.714831 0.163729-5.242398 0.314155-7.958252 0.314155-21.386076 0-42.777269 0.005117-64.173578 0.011256C347.801822 881.446283 326.40449 881.450377 305.00818 881.450377L305.00818 881.450377zM219.577462 580.090794c-0.463558 95.665827-0.497327 175.194114-0.099261 250.255671 0.062422 13.156648 7.245008 19.830651 21.351284 19.830651 22.096251 0.008186 44.192501 0.01228 66.282612 0.01228l72.560596-0.008186c16.369829 0 32.735565-0.004093 49.096185-0.004093L428.768879 645.538389l167.169347 0 0 204.539466c10.357905 0.004093 20.715811 0.011256 31.067576 0.021489l2.795673 0.004093c20.301372 0.019443 40.60786 0.037862 60.918441 0.037862 38.063921 0 69.097728-0.070608 97.66639-0.208754 1.304715-0.01228 4.237511-0.964978 7.534604-3.047406 4.734838-2.955308 9.072633-7.609305 9.03784-21.728884-0.183172-84.74408-0.296759-161.194262 0.167822-238.662635 0.037862-5.805216-1.113357-8.16803-5.857405-12.038174-56.325843-46.115294-113.300462-93.110631-168.398338-138.556683l-0.075725-0.062422c-19.806091-16.3422-39.616276-32.679283-59.436694-49.012274-17.326621-14.280238-34.669614-28.54615-52.057633-42.844807l-7.343245-6.034437c-26.163893 21.546735-52.347229 43.139519-78.535681 64.733327l-68.37732 56.362682c-47.193859 38.885636-95.990215 79.093383-143.940296 118.986975C220.659097 578.400293 219.925387 579.400063 219.577462 580.090794L219.577462 580.090794zM130.710482 563.964512c-5.468548 0-10.667967-3.226484-16.8559-10.465352-9.651824-11.339256-18.429745-21.780049-26.853601-31.924083-10.818393-13.039991-10.118452-21.474081 2.679016-32.233122 39.851637-33.349549 80.45131-67.165726 119.710452-99.865475 13.495362-11.234879 26.986631-22.469758 40.476877-33.717939 23.424502-19.526729 46.856168-39.043225 70.290903-58.56586 46.982034-39.138392 95.566566-79.605036 143.30994-119.490441 16.205077-13.528108 32.519648-20.386306 48.477085-20.386306 16.041348 0 32.43062 6.928806 48.711422 20.593014 29.850865 25.041326 60.267619 50.417273 89.675392 74.950016l25.241894 21.063735c1.130753 0.938372 2.328022 1.855254 3.990894 3.127224 0.639566 0.493234 1.353834 1.037632 2.160199 1.662873 0-10.775414-0.004093-21.298072-0.00921-31.636534-0.005117-21.236674-0.014326-41.73145 0.00921-62.206784 0.032746-20.157085 5.252631-25.38004 25.381064-25.412786l46.020126-0.00921c15.341407 0 30.680766 0.00921 46.023196 0.042979 16.352433 0.037862 22.157649 6.112208 22.195511 23.223934l0.034792 28.823466c0.068562 55.790654 0.140193 113.474424-0.2415 170.199357-0.064468 10.107195 2.888793 16.457834 10.536984 22.641673 27.055193 21.766746 54.136991 44.394093 80.328513 66.277496 6.472412 5.40715 12.94994 10.818393 19.428491 16.220427 8.92016 7.436366 12.56927 12.395308 13.025665 17.689894 0.528026 6.119371-3.593851 12.353352-9.94449 19.828604-3.561106 4.208858-7.150864 8.526187-10.619872 12.69616-4.608971 5.533017-9.371438 11.256368-14.134929 16.822131-5.804193 6.832615-11.060917 10.020214-16.534582 10.020214-4.734838 0-9.733689-2.337231-15.734356-7.354502-61.000306-50.900274-122.000612-101.818967-183.003987-152.742776-56.69321-47.325865-113.390513-94.655823-170.096003-141.977595-2.340301-1.944282-4.708232-3.860934-7.210215-5.889127-1.686409-1.36816-3.426029-2.777253-5.248537-4.266164-9.153474 7.625678-18.285458 15.223726-27.400047 22.806425-16.72594 13.922081-34.025954 28.321022-50.979068 42.482557-46.831608 39.076994-93.66424 78.163197-140.496871 117.251448-48.702212 40.646746-97.408517 81.291444-146.110729 121.926934C140.499429 561.560766 135.492392 563.960419 130.710482 563.964512L130.710482 563.964512zM511.945253 159.041226c-15.758915 0-31.255865 6.538927-47.371914 19.98824-47.739281 39.885406-96.323812 80.357166-143.310963 119.494535-23.434735 19.516496-46.866401 39.035038-70.289879 58.561767-13.491269 11.244089-26.983561 22.479991-40.476877 33.716916-39.260166 32.697703-79.855746 66.51388-119.706359 99.861382-11.973706 10.07138-12.592806 17.59575-2.456958 29.807886 8.413624 10.137895 17.192567 20.574594 26.840298 31.908734 5.823636 6.816243 10.615779 9.855462 15.538905 9.855462 4.287653 0 9.098215-2.348488 15.125489-7.389294 48.707328-40.640606 97.407494-81.286328 146.110729-121.93205 46.831608-39.08518 93.66424-78.172407 140.496871-117.249401 16.95209-14.163581 34.252105-28.559453 50.984185-42.48358 9.29162-7.731078 18.606777-15.482623 27.944446-23.25975l0.549515-0.460488 0.550539 0.455371c2.023076 1.658779 3.940752 3.213181 5.791913 4.711302 2.508123 2.033309 4.881171 3.955078 7.228635 5.904477 56.706513 47.324842 113.40177 94.65173 170.099073 141.975549 61.006446 50.924833 122.003682 101.848643 183.005011 152.748916 5.672186 4.739954 10.31902 6.946202 14.626115 6.946202 4.927219 0 9.762341-2.992147 15.219633-9.41237 4.758374-5.557576 9.516748-11.273764 14.120602-16.807804 3.476171-4.168949 7.068999-8.492418 10.636245-12.706393 7.275707-8.568143 9.946536-13.771655 9.540284-18.559705-0.410346-4.719488-4.004197-9.507538-12.411681-16.516162-6.481621-5.399987-12.95608-10.81123-19.428491-16.21838-26.186406-21.881356-53.263088-44.502563-80.308047-66.262146-8.118911-6.562463-11.253298-13.288654-11.17655-23.998577 0.38067-56.715723 0.305969-114.39847 0.239454-170.184007l-0.031722-28.823466c-0.039909-16.243963-5.013177-21.466917-20.473287-21.499663-15.341407-0.032746-30.680766-0.041956-46.023196-0.041956l-46.020126 0.00921c-19.200294 0.032746-23.619954 4.462638-23.657816 23.688515-0.017396 20.475334-0.013303 40.97011-0.002047 62.206784 0 10.903328 0.002047 22.002107 0.002047 33.398668l0 1.762133-1.387603-1.081635c-1.416256-1.099031-2.566452-1.981121-3.551896-2.732228-1.674129-1.287319-2.87856-2.212388-4.040013-3.176342l-25.243941-21.061688c-29.40982-24.539906-59.82555-49.91483-89.676415-74.956156C543.361777 165.646668 527.790126 159.041226 511.945253 159.041226L511.945253 159.041226zM130.715599 578.728774 130.715599 578.728774c-13.19144 0.005117-22.345937-8.921183-28.085662-15.633049-9.704013-11.404748-18.525935-21.894659-26.986631-32.084743-15.942087-19.212574-14.415314-37.033451 4.533246-52.967352 40.120766-33.5757 80.610946-67.298755 119.767757-99.912547 13.491269-11.236925 26.981515-22.472827 40.467667-33.712823 23.425525-19.527752 46.859237-39.050388 70.296019-58.56586l0.234337-0.196475c46.902216-39.074947 95.40693-79.475076 143.057183-119.28578 18.944468-15.804964 38.438451-23.819498 57.945737-23.819498 19.606547 0 39.190581 8.088212 58.204633 24.049742 30.05348 25.206078 60.347436 50.481741 89.645716 74.921363l7.158027 5.974062 0-0.412392c-0.010233-21.245883-0.014326-41.745776 0.007163-62.23032 0.050142-28.478612 11.670807-40.114626 40.121789-40.161698l46.043662-0.010233c15.353686 0 30.706349 0.010233 46.062082 0.042979 24.446785 0.051165 36.867676 12.824073 36.927027 37.960567l0.030699 29.315676c0.069585 55.658647 0.141216 113.215528-0.23843 169.837106-0.037862 5.979178 1.164522 7.91425 5.050016 11.060917 27.122731 21.815865 54.239322 44.474934 80.46973 66.388013 6.515391 5.445012 12.983709 10.851139 19.461237 16.249079 8.896624 7.41283 17.263176 15.908318 18.283412 27.770484 1.023306 11.870352-5.833869 21.744233-13.399171 30.649044-3.371794 3.986801-6.763031 8.055466-10.525728 12.57848l-0.125867 0.155543c-4.600785 5.525853-9.359158 11.233855-14.145162 16.825201-8.665357 10.203386-17.755386 15.181771-27.744901 15.181771-11.023054 0-19.664875-6.154163-25.207102-10.780531-60.995189-50.895157-121.996518-101.818967-182.998871-152.741753-56.69014-47.326888-113.393583-94.655823-170.096003-141.977595-0.952698-0.788969-1.910513-1.572822-2.8847-2.371-6.030343 5.019317-12.050454 10.031471-18.064424 15.034415-16.721847 13.920034-34.012651 28.311813-50.960649 42.465161-45.558615 38.014802-91.115184 76.03472-136.668683 114.055662l-3.833305 3.198855c-48.702212 40.645722-97.408517 81.290421-146.110729 121.93205C150.161487 572.730153 141.58925 578.728774 130.715599 578.728774L130.715599 578.728774zM511.861342 230.29506l9.992585 8.212032c1.877767 1.545192 3.681856 3.001357 5.418406 4.409426l0.292666 0.240477c2.560312 2.070148 4.978385 4.028757 7.370875 6.02625 56.722886 47.335075 113.425306 94.665033 170.121586 141.990898l3.471055 2.899026c59.844993 49.955762 119.688963 99.912547 179.528839 149.844773 2.620687 2.188852 4.183276 3.037173 4.923126 3.353374 0.675382-0.436952 2.075265-1.528819 4.212952-4.040013 4.738931-5.538133 9.454326-11.207249 14.020318-16.694217 3.542686-4.25593 7.141654-8.577353 10.705829-12.795421 3.533476-4.15667 5.048993-6.501064 5.697769-7.703449-0.835018-1.070378-2.697435-3.119037-6.746658-6.495948-5.457292-4.547573-10.910491-9.103332-16.363689-13.661138l-3.072989-2.568499c-26.13217-21.830191-53.148477-44.404326-80.098269-66.087161-11.653411-9.41851-16.787338-20.391423-16.687054-35.602869 0.3776-56.583716 0.306992-114.163109 0.236384-169.845293l-0.034792-29.04757c-0.002047-3.448542-0.296759-5.370311-0.51984-6.342452-0.865717-0.183172-2.470261-0.400113-5.213745-0.405229-15.33322-0.036839-30.661324-0.041956-45.991474-0.041956l-46.016033 0.005117c-4.673439 0.010233-7.101745 0.329505-8.299013 0.586354-0.264013 1.207501-0.583285 3.651157-0.592494 8.365528-0.01842 20.456914-0.014326 40.942481-0.004093 62.170968l0.004093 65.35345-25.220405-19.605523c-1.376347-1.071402-2.50403-1.937119-3.466961-2.667759l-0.12689-0.104377c-1.687432-1.291412-3.0208-2.316765-4.369517-3.435239l-25.270547-21.085224c-29.367865-24.50102-59.734476-49.838082-89.705068-74.978668-13.418614-11.264555-25.886577-16.736173-38.114063-16.736173-12.160971 0-24.561395 5.41636-37.907355 16.551978-48.53746 40.547485-98.893334 82.495876-143.326313 119.504768-23.429619 19.518542-46.859237 39.039131-70.284763 58.561767-13.492292 11.245112-26.986631 22.487154-40.481993 33.722032l-0.676405 0.563842c-39.035038 32.511461-79.394235 66.13014-119.002324 99.275028-2.400676 2.020006-3.532453 3.339048-4.040013 4.044106 0.385786 0.813528 1.305739 2.40477 3.472078 5.01113 8.370645 10.085706 17.110703 20.475334 26.717502 31.763424 2.310625 2.706645 3.795443 3.922333 4.552689 4.446265 0.854461-0.397043 2.573615-1.3743 5.402033-3.736091 48.710398-40.645722 97.41261-81.291444 146.114822-121.94126l4.796236-4.002151c45.234227-37.754882 90.470501-75.504648 135.705752-113.248274 16.951067-14.161534 34.261315-28.564569 50.998511-42.491767l5.588275-4.65502c7.437389-6.186909 14.880919-12.387122 22.350031-18.6078L511.861342 230.29506 511.861342 230.29506zM511.861342 230.29506" p-id="4286" fill="#ffffff"></path></svg>
